<svg width="670" height="231" viewBox="0 0 670 231" fill="none" xmlns="http://www.w3.org/2000/svg">
<path fill-rule="evenodd" clip-rule="evenodd" d="M19.1357 55.2453C20.6262 53.508 22.5514 52.1976 24.7144 51.4483C26.8683 50.6779 29.1884 50.4942 31.4368 50.916C33.6852 51.3377 35.7809 52.3497 37.5093 53.8482L51.6974 67.3886C51.1767 67.8539 50.6896 68.3555 50.2399 68.8897C49.0434 70.297 48.0986 71.9002 47.447 73.6286L32.6479 59.5471C31.9151 58.9095 31.027 58.4767 30.0732 58.2924C29.1195 58.1082 28.134 58.1791 27.2164 58.4979C26.2988 58.8167 25.4818 59.3722 24.8478 60.1081C24.2138 60.844 23.7854 61.7343 23.606 62.6889L7.64292 148.155C7.46599 149.108 7.54279 150.091 7.86563 151.006C8.18847 151.92 8.746 152.734 9.48236 153.365C10.2187 153.996 11.108 154.423 12.0612 154.602C13.0143 154.781 13.9978 154.707 14.9131 154.386L39.3508 145.781C39.4983 146.33 39.679 146.869 39.8919 147.395C40.6388 149.256 41.735 150.956 43.1212 152.405L17.3482 161.464C15.1912 162.223 12.8722 162.402 10.6244 161.981C8.37662 161.56 6.27935 160.554 4.54359 159.066C2.80783 157.577 1.49478 155.657 0.73656 153.5C-0.0216636 151.342 -0.198321 149.023 0.224343 146.776L16.231 61.3362C16.6428 59.0845 17.6451 56.9826 19.1357 55.2453ZM98.6034 116.125L60.5767 83.5206C62.2424 82.5965 63.7316 81.3851 64.9754 79.9424C65.3844 79.4487 65.766 78.933 66.1188 78.3977L103.5 110.453C105.237 111.94 106.552 113.859 107.312 116.016C108.072 118.174 108.251 120.493 107.829 122.741C107.408 124.989 106.402 127.086 104.913 128.822C103.424 130.558 101.503 131.871 99.3453 132.629L56.1128 147.568C56.31 145.085 55.9276 142.59 54.9957 140.28L54.8909 140.045L96.8579 125.533C97.7721 125.21 98.5851 124.651 99.215 123.914C99.845 123.177 100.27 122.287 100.447 121.333C100.624 120.38 100.546 119.397 100.223 118.482C99.8993 117.568 99.3408 116.755 98.6034 116.125Z" fill="url(#paint0_linear)"/>
<path fill-rule="evenodd" clip-rule="evenodd" d="M45.9149 11.6076C47.02 11.5997 48.0979 11.2641 49.0122 10.6435C49.9265 10.0228 50.6362 9.14486 51.0514 8.12078C51.4666 7.0967 51.5687 5.97248 51.3447 4.89038C51.1208 3.80828 50.5809 2.81694 49.7933 2.04177C49.0058 1.26659 48.006 0.742434 46.9204 0.535617C45.8348 0.328799 44.7123 0.448611 43.6949 0.879903C42.6774 1.3112 41.8107 2.03456 41.2045 2.95851C40.5983 3.88245 40.2798 4.96543 40.2893 6.07042C40.2945 6.80355 40.4441 7.52847 40.7298 8.20369C41.0154 8.87891 41.4314 9.4912 41.9539 10.0055C42.4764 10.5198 43.0952 10.926 43.7749 11.2009C44.4545 11.4758 45.1818 11.614 45.9149 11.6076ZM60.209 32.0605C63.9476 30.3961 65.629 26.0164 63.9646 22.278C62.3002 18.5397 57.9202 16.8584 54.1816 18.5228C50.443 20.1871 48.7616 24.5669 50.426 28.3052C52.0904 32.0436 56.4704 33.7249 60.209 32.0605ZM59.9672 44.1858C61.3901 43.2131 63.0691 42.6836 64.7926 42.6638C65.9438 42.6506 67.0863 42.8653 68.1541 43.2955C69.222 43.7257 70.1942 44.3629 71.0148 45.1704C71.8353 45.9779 72.4879 46.9398 72.9351 48.0007C73.3822 49.0615 73.6151 50.2003 73.6202 51.3515C73.6279 53.075 73.125 54.7621 72.1751 56.2002C71.2251 57.6383 69.8706 58.763 68.2824 59.4325C66.6941 60.1019 64.9432 60.2861 63.2504 59.9618C61.5576 59.6376 59.9987 58.8194 58.7703 57.6105C57.5419 56.4015 56.699 54.856 56.3479 53.1686C55.9967 51.4813 56.153 49.7278 56.7972 48.1292C57.4413 46.5306 58.5443 45.1584 59.9672 44.1858ZM64.2484 70.8144C62.1014 70.8314 60.0076 71.4845 58.2317 72.6912C56.4559 73.8979 55.0777 75.604 54.2714 77.5938C53.465 79.5836 53.2668 81.7678 53.7018 83.8702C54.1367 85.9726 55.1853 87.8989 56.7149 89.4055C58.2445 90.9121 60.1865 91.9313 62.2954 92.3343C64.4043 92.7374 66.5854 92.5062 68.5629 91.6699C70.5404 90.8337 72.2255 89.4299 73.4053 87.6361C74.5851 85.8423 75.2065 83.7391 75.191 81.5922C75.1807 80.1659 74.8895 78.7556 74.3339 77.4419C73.7783 76.1282 72.9693 74.9369 71.9531 73.936C70.9369 72.9351 69.7334 72.1443 68.4114 71.6087C67.0894 71.073 65.6747 70.8031 64.2484 70.8144ZM65.2576 116.511C64.7081 123.85 58.3124 129.355 50.9725 128.805C43.6326 128.256 38.1279 121.861 38.6774 114.521C39.227 107.182 45.6226 101.677 52.9625 102.227C60.3024 102.776 65.8071 109.171 65.2576 116.511ZM58.3762 219.392C57.2711 219.4 56.1932 219.736 55.2789 220.357C54.3646 220.977 53.6549 221.855 53.2397 222.879C52.8245 223.903 52.7224 225.027 52.9463 226.11C53.1703 227.192 53.7102 228.183 54.4978 228.958C55.2853 229.733 56.2851 230.257 57.3707 230.464C58.4563 230.671 59.5788 230.551 60.5962 230.12C61.6137 229.689 62.4804 228.965 63.0866 228.041C63.6928 227.117 64.0113 226.034 64.0018 224.93C63.9966 224.196 63.8469 223.471 63.5613 222.796C63.2757 222.121 62.8597 221.509 62.3372 220.994C61.8147 220.48 61.1959 220.074 60.5162 219.799C59.8365 219.524 59.1093 219.386 58.3762 219.392ZM42.9039 199.606C44.1163 198.783 45.5457 198.338 47.0113 198.327C48.976 198.312 50.8662 199.078 52.2662 200.456C53.6662 201.835 54.4613 203.713 54.4768 205.677C54.4883 207.143 54.0649 208.579 53.2602 209.804C52.4555 211.029 51.3056 211.987 49.9559 212.559C48.6063 213.13 47.1175 213.289 45.6778 213.014C44.2382 212.739 42.9124 212.044 41.8681 211.015C40.8238 209.987 40.1079 208.672 39.8109 207.237C39.514 205.802 39.6494 204.311 40.1999 202.953C40.7505 201.594 41.6914 200.43 42.9039 199.606ZM39.3934 170.833C37.6696 170.851 35.9896 171.379 34.5655 172.351C33.1415 173.323 32.0371 174.694 31.3916 176.293C30.7462 177.891 30.5887 179.645 30.939 181.333C31.2892 183.021 32.1315 184.567 33.3597 185.777C34.5878 186.987 36.1467 187.806 37.8398 188.131C39.5329 188.456 41.2843 188.272 42.8731 187.603C44.4618 186.933 45.8168 185.808 46.767 184.37C47.7172 182.932 48.2202 181.244 48.2123 179.52C48.2071 178.37 47.9745 177.232 47.5279 176.172C47.0812 175.111 46.4293 174.15 45.6097 173.343C44.7901 172.535 43.819 171.898 42.7522 171.467C41.6853 171.037 40.5439 170.821 39.3934 170.833ZM33.8632 140.359C35.6344 139.148 37.7246 138.489 39.8699 138.465C41.2988 138.452 42.7163 138.72 44.0415 139.255C45.3667 139.789 46.5735 140.58 47.593 141.581C48.6125 142.582 49.4247 143.774 49.9831 145.09C50.5415 146.405 50.8352 147.817 50.8474 149.246C50.8622 151.391 50.2411 153.493 49.0625 155.285C47.8839 157.078 46.2005 158.481 44.225 159.318C42.2495 160.155 40.0703 160.388 37.9626 159.987C35.8549 159.587 33.9131 158.57 32.3825 157.067C30.8518 155.564 29.8008 153.641 29.3623 151.541C28.9237 149.441 29.1171 147.258 29.9182 145.268C30.7193 143.278 32.092 141.569 33.8632 140.359Z" fill="url(#paint1_linear)"/>
<path d="M151.279 52.9695H194.774V61.0086H165.284V76.5405H190.805V84.2674H165.284V99.5651H194.774V107.604H155.014V61.7891C155.014 59.8639 154.728 58.485 154.158 57.6525C153.587 56.82 152.627 56.2997 151.279 56.0915V52.9695Z" fill="#262323"/>
<path d="M208.14 52.9695C212.446 52.9695 214.598 55.0509 214.598 59.2135V99.5651H241.753V107.604H204.328V61.7891C204.328 59.8639 204.042 58.485 203.472 57.6525C202.901 56.82 201.941 56.2997 200.593 56.0915V52.9695H208.14Z" fill="#262323"/>
<path d="M244.664 56.0915V52.9695H271.119C279.366 52.9695 285.772 54.8688 290.337 58.6672C294.902 62.4656 297.184 67.7729 297.184 74.5892V85.9845C297.184 92.8008 294.902 98.1081 290.337 101.907C285.772 105.705 279.366 107.604 271.119 107.604H248.399V61.7891C248.399 59.8639 248.113 58.485 247.543 57.6525C246.972 56.82 246.013 56.2997 244.664 56.0915ZM271.119 99.5651C281.649 99.5651 286.914 94.6479 286.914 84.8137V75.76C286.914 65.9258 281.649 61.0086 271.119 61.0086H258.669V99.5651H271.119Z" fill="#262323"/>
<path d="M304.962 86.6869V73.8868C304.962 66.9144 307.244 61.529 311.809 57.7306C316.373 53.9322 322.728 52.033 330.872 52.033C339.016 52.033 345.37 53.9322 349.935 57.7306C354.551 61.529 356.86 66.9144 356.86 73.8868V86.6869C356.86 93.6593 354.551 99.0447 349.935 102.843C345.37 106.642 339.016 108.541 330.872 108.541C322.728 108.541 316.373 106.642 311.809 102.843C307.244 99.0447 304.962 93.6593 304.962 86.6869ZM315.154 74.5112V86.0625C315.154 95.3244 320.393 99.9553 330.872 99.9553C336.007 99.9553 339.897 98.8366 342.543 96.5992C345.24 94.3097 346.589 90.8756 346.589 86.2967C346.589 86.2446 346.589 86.1666 346.589 86.0625V74.5112C346.589 65.2493 341.35 60.6184 330.872 60.6184C320.393 60.6184 315.154 65.2493 315.154 74.5112Z" fill="#262323"/>
<path d="M388.497 52.9695C402.346 52.9695 409.271 58.7712 409.271 70.3746C409.271 78.5958 405.329 84.0853 397.444 86.843C398.326 87.3633 399.208 88.2739 400.09 89.5747L412.15 107.604H402.191C400.946 107.604 399.908 107.084 399.078 106.043L388.73 90.5894C387.9 89.2365 386.499 88.5601 384.528 88.5601H376.825V107.604H366.555V61.7891C366.555 59.8639 366.269 58.485 365.699 57.6525C365.128 56.82 364.168 56.2997 362.82 56.0915V52.9695H388.497ZM376.825 80.599H387.407C391.142 80.599 393.995 79.7405 395.966 78.0234C397.989 76.3063 399.001 73.8608 399.001 70.6868C399.001 67.5128 397.989 65.1192 395.966 63.5062C393.995 61.8412 391.142 61.0086 387.407 61.0086H376.825V80.599Z" fill="#262323"/>
<path d="M436.643 52.9695H446.758L469.478 107.604H458.196L454.072 97.3797C453.709 96.3911 453.008 95.8967 451.971 95.8967H431.352C430.366 95.8967 429.64 96.3911 429.173 97.3797L425.049 107.604H413.845L436.643 52.9695ZM450.57 88.1698L444.268 72.4819L441.7 65.3794L439.055 72.4819L432.83 88.1698H450.57Z" fill="#262323"/>
<path d="M472.337 88.0918V79.5844H495.057V88.0918H472.337Z" fill="#262323"/>
<path d="M500.276 56.0915V52.9695H526.731C534.978 52.9695 541.385 54.8688 545.949 58.6672C550.514 62.4656 552.796 67.7729 552.796 74.5892V85.9845C552.796 92.8008 550.514 98.1081 545.949 101.907C541.385 105.705 534.978 107.604 526.731 107.604H504.011V61.7891C504.011 59.8639 503.725 58.485 503.155 57.6525C502.584 56.82 501.625 56.2997 500.276 56.0915ZM526.731 99.5651C537.261 99.5651 542.526 94.6479 542.526 84.8137V75.76C542.526 65.9258 537.261 61.0086 526.731 61.0086H514.281V99.5651H526.731Z" fill="#262323"/>
<path d="M560.574 86.6869V73.8868C560.574 66.9144 562.856 61.529 567.421 57.7306C571.985 53.9322 578.34 52.033 586.484 52.033C594.628 52.033 600.982 53.9322 605.547 57.7306C610.163 61.529 612.472 66.9144 612.472 73.8868V86.6869C612.472 93.6593 610.163 99.0447 605.547 102.843C600.982 106.642 594.628 108.541 586.484 108.541C578.34 108.541 571.985 106.642 567.421 102.843C562.856 99.0447 560.574 93.6593 560.574 86.6869ZM570.766 74.5112V86.0625C570.766 95.3244 576.006 99.9553 586.484 99.9553C591.619 99.9553 595.509 98.8366 598.155 96.5992C600.852 94.3097 602.201 90.8756 602.201 86.2967C602.201 86.2446 602.201 86.1666 602.201 86.0625V74.5112C602.201 65.2493 596.962 60.6184 586.484 60.6184C576.006 60.6184 570.766 65.2493 570.766 74.5112Z" fill="#262323"/>
<path d="M622.089 93.4772C624.475 95.4024 627.432 96.9634 630.959 98.1602C634.538 99.3569 638.273 99.9553 642.163 99.9553C645.691 99.9553 648.518 99.3829 650.644 98.2382C652.771 97.0415 653.835 95.3504 653.835 93.165C653.835 92.1244 653.679 91.1878 653.368 90.3552C653.057 89.5227 652.512 88.8203 651.734 88.2479C651.008 87.6755 650.307 87.2072 649.633 86.843C649.011 86.4267 647.999 86.0625 646.598 85.7503C645.25 85.3861 644.186 85.1259 643.408 84.9698C642.63 84.8137 641.385 84.5796 639.674 84.2674C633.086 83.1227 628.158 81.3275 624.89 78.882C621.622 76.3844 619.988 72.7941 619.988 68.1111C619.988 63.168 621.881 59.2655 625.668 56.4037C629.507 53.4899 634.512 52.033 640.685 52.033C649.866 52.033 657.077 54.0362 662.316 58.0428L658.892 65.6916C656.765 64.1827 654.016 62.9599 650.644 62.0233C647.273 61.0867 643.927 60.6184 640.607 60.6184C637.495 60.6184 634.979 61.1647 633.06 62.2574C631.141 63.3501 630.181 64.9111 630.181 66.9404C630.181 67.7729 630.311 68.5274 630.57 69.2038C630.881 69.8282 631.374 70.4006 632.048 70.9209C632.723 71.3892 633.371 71.8055 633.994 72.1697C634.668 72.4819 635.602 72.7941 636.795 73.1063C637.988 73.4185 638.973 73.6787 639.751 73.8868C640.529 74.0949 641.671 74.3551 643.175 74.6673C644.731 74.9795 645.898 75.2136 646.676 75.3697C649.114 75.8901 651.215 76.4884 652.979 77.1649C654.794 77.8413 656.61 78.8039 658.425 80.0527C660.293 81.2495 661.693 82.8625 662.627 84.8918C663.612 86.869 664.105 89.2365 664.105 91.9943C664.105 97.3016 662.082 101.386 658.036 104.248C653.99 107.11 648.518 108.541 641.619 108.541C632.022 108.541 624.319 106.121 618.51 101.282L622.089 93.4772Z" fill="#262323"/>
<path fill-rule="evenodd" clip-rule="evenodd" d="M279.285 143.381C281.076 143.381 282.527 141.925 282.527 140.129C282.527 138.333 281.076 136.877 279.285 136.877C277.495 136.877 276.043 138.333 276.043 140.129C276.043 141.925 277.495 143.381 279.285 143.381ZM263.075 142.297C264.269 142.297 265.237 141.327 265.237 140.129C265.237 138.932 264.269 137.961 263.075 137.961C261.882 137.961 260.914 138.932 260.914 140.129C260.914 141.327 261.882 142.297 263.075 142.297Z" fill="#38DEDB"/>
<path d="M293.334 149.799H303.946V147.37H295.993V134.622H293.334V149.799Z" fill="#262323"/>
<path d="M306.716 149.799H318.041V147.414H309.374V143.338H316.961V140.953H309.374V137.007H317.933V134.622H306.716V149.799Z" fill="#262323"/>
<path d="M327.675 149.799H330.333V144.92H333.338C336.666 144.92 339.389 143.143 339.389 139.739V139.696C339.389 136.639 337.163 134.622 333.64 134.622H327.675V149.799ZM330.333 142.514V137.051H333.424C335.413 137.051 336.688 137.983 336.688 139.761V139.804C336.688 141.387 335.434 142.514 333.424 142.514H330.333Z" fill="#262323"/>
<path d="M342.112 149.799H344.771V144.509H348.099L351.817 149.799H354.95L350.866 144.053C352.984 143.446 354.475 141.95 354.475 139.457V139.414C354.475 138.091 354.021 136.964 353.221 136.14C352.249 135.186 350.757 134.622 348.855 134.622H342.112V149.799ZM344.771 142.145V137.051H348.639C350.606 137.051 351.773 137.939 351.773 139.565V139.609C351.773 141.148 350.563 142.145 348.661 142.145H344.771Z" fill="#262323"/>
<path d="M357.731 149.799H369.057V147.414H360.39V143.338H367.976V140.953H360.39V137.007H368.948V134.622H357.731V149.799Z" fill="#262323"/>
<path d="M372.21 149.799H374.826V138.958L379.559 146.07H379.645L384.422 138.915V149.799H387.08V134.622H384.249L379.645 141.799L375.042 134.622H372.21V149.799Z" fill="#262323"/>
<path d="M391.126 149.799H393.784V134.622H391.126V149.799Z" fill="#262323"/>
<path d="M397.834 149.799H409.16V147.414H400.493V143.338H408.079V140.953H400.493V137.007H409.051V134.622H397.834V149.799Z" fill="#262323"/>
<path d="M412.313 149.799H414.972V144.509H418.3L422.018 149.799H425.152L421.067 144.053C423.185 143.446 424.676 141.95 424.676 139.457V139.414C424.676 138.091 424.222 136.964 423.423 136.14C422.45 135.186 420.959 134.622 419.057 134.622H412.313V149.799ZM414.972 142.145V137.051H418.841C420.807 137.051 421.975 137.939 421.975 139.565V139.609C421.975 141.148 420.764 142.145 418.862 142.145H414.972Z" fill="#262323"/>
<path d="M434.412 149.799H437.071V144.509H440.399L444.117 149.799H447.251L443.166 144.053C445.284 143.446 446.775 141.95 446.775 139.457V139.414C446.775 138.091 446.321 136.964 445.522 136.14C444.549 135.186 443.058 134.622 441.156 134.622H434.412V149.799ZM437.071 142.145V137.051H440.939C442.906 137.051 444.073 137.939 444.073 139.565V139.609C444.073 141.148 442.863 142.145 440.961 142.145H437.071Z" fill="#262323"/>
<path d="M454.613 133.365H456.645L459.411 131.262L457.034 130.221L454.613 133.365ZM450.031 149.799H461.357V147.414H452.69V143.338H460.276V140.953H452.69V137.007H461.249V134.622H450.031V149.799Z" fill="#262323"/>
<path d="M469.806 150.015C472.983 150.015 475.209 148.324 475.209 145.484V145.441C475.209 142.926 473.545 141.777 470.346 140.996C467.45 140.303 466.758 139.782 466.758 138.612V138.568C466.758 137.571 467.666 136.769 469.222 136.769C470.606 136.769 471.967 137.311 473.329 138.33L474.755 136.313C473.221 135.078 471.47 134.406 469.265 134.406C466.261 134.406 464.1 136.205 464.1 138.807V138.85C464.1 141.647 465.915 142.601 469.136 143.381C471.946 144.032 472.551 144.617 472.551 145.701V145.744C472.551 146.893 471.513 147.652 469.871 147.652C467.99 147.652 466.542 146.937 465.094 145.679L463.495 147.587C465.31 149.213 467.493 150.015 469.806 150.015Z" fill="#262323"/>
<path d="M478.336 149.799H489.661V147.414H480.994V143.338H488.58V140.953H480.994V137.007H489.553V134.622H478.336V149.799Z" fill="#262323"/>
<path d="M491.518 149.799H494.241L495.797 146.135H502.951L504.486 149.799H507.296L500.639 134.514H498.175L491.518 149.799ZM496.77 143.771L499.364 137.701L501.979 143.771H496.77Z" fill="#262323"/>
<path d="M515.544 150.037C519.5 150.037 522.05 147.761 522.05 143.229V134.622H519.392V143.36C519.392 146.156 517.944 147.587 515.588 147.587C513.21 147.587 511.762 146.07 511.762 143.251V134.622H509.104V143.36C509.104 147.761 511.611 150.037 515.544 150.037Z" fill="#262323"/>
<path fill-rule="evenodd" clip-rule="evenodd" d="M536.099 143.381C537.889 143.381 539.341 141.925 539.341 140.129C539.341 138.333 537.889 136.877 536.099 136.877C534.308 136.877 532.857 138.333 532.857 140.129C532.857 141.925 534.308 143.381 536.099 143.381ZM552.309 142.297C553.503 142.297 554.47 141.327 554.47 140.129C554.47 138.932 553.503 137.961 552.309 137.961C551.115 137.961 550.148 138.932 550.148 140.129C550.148 141.327 551.115 142.297 552.309 142.297Z" fill="#38DEDB"/>
<path d="M156.86 180.455H162.501C167.256 180.455 170.541 177.137 170.541 172.866V172.823C170.541 168.552 167.256 165.278 162.501 165.278H156.86V180.455ZM159.518 178.026V167.707H162.501C165.678 167.707 167.753 169.896 167.753 172.866V172.91C167.753 175.88 165.678 178.026 162.501 178.026H159.518Z" fill="#262323"/>
<path d="M172.945 171.414C175.128 171.24 176.274 170.221 176.274 167.815V165.278H173.399V168.249H174.501C174.609 169.376 173.983 170.048 172.664 170.286L172.945 171.414Z" fill="#262323"/>
<path d="M176.121 180.455H178.844L180.401 176.791H187.555L189.089 180.455H191.899L185.242 165.17H182.778L176.121 180.455ZM181.373 174.427L183.967 168.357L186.582 174.427H181.373Z" fill="#262323"/>
<path d="M200.74 180.715C203.42 180.715 205.56 179.631 207.051 178.352V171.978H200.611V174.297H204.479V177.137C203.55 177.831 202.253 178.287 200.827 178.287C197.736 178.287 195.683 175.988 195.683 172.866V172.823C195.683 169.918 197.801 167.468 200.589 167.468C202.513 167.468 203.658 168.097 204.825 169.094L206.511 167.078C204.955 165.755 203.334 165.018 200.697 165.018C196.137 165.018 192.895 168.617 192.895 172.866V172.91C192.895 177.333 196.007 180.715 200.74 180.715Z" fill="#262323"/>
<path d="M210.665 180.455H213.323V165.278H210.665V180.455Z" fill="#262323"/>
<path d="M221.091 180.455H223.771V167.75H228.569V165.278H216.292V167.75H221.091V180.455Z" fill="#262323"/>
<path d="M228.149 180.455H230.873L232.429 176.791H239.583L241.117 180.455H243.927L237.27 165.17H234.806L228.149 180.455ZM233.401 174.427L235.995 168.357L238.61 174.427H233.401Z" fill="#262323"/>
<path d="M248.297 180.455H250.977V167.75H255.776V165.278H243.499V167.75H248.297V180.455Z" fill="#262323"/>
<path d="M258.595 180.455H269.92V178.07H261.253V173.994H268.839V171.609H261.253V167.663H269.812V165.278H258.595V180.455Z" fill="#262323"/>
<path d="M279.277 180.693C283.232 180.693 285.783 178.417 285.783 173.885V165.278H283.124V174.016C283.124 176.812 281.676 178.243 279.32 178.243C276.943 178.243 275.495 176.726 275.495 173.907V165.278H272.836V174.016C272.836 178.417 275.343 180.693 279.277 180.693Z" fill="#262323"/>
<path d="M289.432 180.455H292.09V175.165H295.419L299.136 180.455H302.27L298.185 174.709C300.303 174.102 301.795 172.606 301.795 170.113V170.07C301.795 168.747 301.341 167.62 300.541 166.796C299.568 165.842 298.077 165.278 296.175 165.278H289.432V180.455ZM292.09 172.801V167.707H295.959C297.926 167.707 299.093 168.595 299.093 170.221V170.265C299.093 171.804 297.883 172.801 295.981 172.801H292.09Z" fill="#262323"/>
<path d="M310.346 180.671C313.523 180.671 315.749 178.98 315.749 176.14V176.097C315.749 173.582 314.085 172.433 310.886 171.652C307.99 170.959 307.299 170.438 307.299 169.268V169.224C307.299 168.227 308.206 167.425 309.763 167.425C311.146 167.425 312.507 167.967 313.869 168.986L315.296 166.969C313.761 165.734 312.01 165.062 309.806 165.062C306.802 165.062 304.64 166.861 304.64 169.463V169.506C304.64 172.303 306.456 173.257 309.676 174.037C312.486 174.688 313.091 175.273 313.091 176.357V176.4C313.091 177.549 312.054 178.308 310.411 178.308C308.531 178.308 307.083 177.593 305.634 176.335L304.035 178.243C305.851 179.869 308.034 180.671 310.346 180.671Z" fill="#262323"/>
<path d="M325.356 180.455H330.997C335.752 180.455 339.037 177.137 339.037 172.866V172.823C339.037 168.552 335.752 165.278 330.997 165.278H325.356V180.455ZM328.014 178.026V167.707H330.997C334.174 167.707 336.249 169.896 336.249 172.866V172.91C336.249 175.88 334.174 178.026 330.997 178.026H328.014Z" fill="#262323"/>
<path d="M342.262 180.455H353.588V178.07H344.921V173.994H352.507V171.609H344.921V167.663H353.48V165.278H342.262V180.455Z" fill="#262323"/>
<path d="M370.246 180.715C373.077 180.715 374.806 179.674 376.384 178.026L374.676 176.292C373.38 177.506 372.191 178.265 370.332 178.265C367.436 178.265 365.339 175.837 365.339 172.866V172.823C365.339 169.853 367.436 167.468 370.332 167.468C372.061 167.468 373.358 168.227 374.568 169.354L376.276 167.381C374.828 165.994 373.142 165.018 370.354 165.018C365.772 165.018 362.551 168.552 362.551 172.866V172.91C362.551 177.268 365.836 180.715 370.246 180.715Z" fill="#262323"/>
<path d="M385.975 180.715C390.622 180.715 393.907 177.137 393.907 172.866V172.823C393.907 168.552 390.665 165.018 386.018 165.018C381.371 165.018 378.086 168.595 378.086 172.866V172.91C378.086 177.181 381.328 180.715 385.975 180.715ZM386.018 178.265C383.014 178.265 380.874 175.815 380.874 172.866V172.823C380.874 169.875 382.97 167.468 385.975 167.468C388.979 167.468 391.119 169.918 391.119 172.866V172.91C391.119 175.858 389.022 178.265 386.018 178.265Z" fill="#262323"/>
<path d="M397.119 180.455H407.731V178.026H399.777V165.278H397.119V180.455Z" fill="#262323"/>
<path d="M416.854 180.715C421.501 180.715 424.786 177.137 424.786 172.866V172.823C424.786 168.552 421.544 165.018 416.897 165.018C412.25 165.018 408.965 168.595 408.965 172.866V172.91C408.965 177.181 412.207 180.715 416.854 180.715ZM416.897 178.265C413.893 178.265 411.753 175.815 411.753 172.866V172.823C411.753 169.875 413.85 167.468 416.854 167.468C419.858 167.468 421.998 169.918 421.998 172.866V172.91C421.998 175.858 419.902 178.265 416.897 178.265Z" fill="#262323"/>
<path d="M427.998 180.455H430.613V169.658L438.956 180.455H441.182V165.278H438.567V175.772L430.462 165.278H427.998V180.455Z" fill="#262323"/>
<path d="M445.074 180.455H447.689V169.658L456.032 180.455H458.258V165.278H455.642V175.772L447.537 165.278H445.074V180.455Z" fill="#262323"/>
<path d="M462.149 180.455H473.474V178.07H464.807V173.994H472.394V171.609H464.807V167.663H473.366V165.278H462.149V180.455Z" fill="#262323"/>
<path d="M481.924 180.671C485.101 180.671 487.327 178.98 487.327 176.14V176.097C487.327 173.582 485.663 172.433 482.464 171.652C479.568 170.959 478.876 170.438 478.876 169.268V169.224C478.876 168.227 479.784 167.425 481.34 167.425C482.723 167.425 484.085 167.967 485.446 168.986L486.873 166.969C485.338 165.734 483.588 165.062 481.383 165.062C478.379 165.062 476.218 166.861 476.218 169.463V169.506C476.218 172.303 478.033 173.257 481.253 174.037C484.063 174.688 484.668 175.273 484.668 176.357V176.4C484.668 177.549 483.631 178.308 481.988 178.308C480.108 178.308 478.66 177.593 477.212 176.335L475.612 178.243C477.428 179.869 479.611 180.671 481.924 180.671Z" fill="#262323"/>
<path d="M501.926 180.563H504.26L510.549 165.278H507.675L503.136 176.942L498.576 165.278H495.636L501.926 180.563Z" fill="#262323"/>
<path d="M513.143 180.455H524.468V178.07H515.801V173.994H523.388V171.609H515.801V167.663H524.36V165.278H513.143V180.455Z" fill="#262323"/>
<path d="M527.622 180.455H530.281V175.165H533.609L537.327 180.455H540.461L536.376 174.709C538.494 174.102 539.985 172.606 539.985 170.113V170.07C539.985 168.747 539.531 167.62 538.732 166.796C537.759 165.842 536.268 165.278 534.366 165.278H527.622V180.455ZM530.281 172.801V167.707H534.15C536.116 167.707 537.283 168.595 537.283 170.221V170.265C537.283 171.804 536.073 172.801 534.171 172.801H530.281Z" fill="#262323"/>
<path d="M546.896 180.455H549.576V167.75H554.374V165.278H542.097V167.75H546.896V180.455Z" fill="#262323"/>
<path d="M561.775 164.021H563.807L566.573 161.918L564.196 160.877L561.775 164.021ZM557.193 180.455H568.518V178.07H559.851V173.994H567.438V171.609H559.851V167.663H568.41V165.278H557.193V180.455Z" fill="#262323"/>
<path d="M571.672 180.455H574.331V175.165H577.659L581.377 180.455H584.511L580.426 174.709C582.544 174.102 584.035 172.606 584.035 170.113V170.07C584.035 168.747 583.581 167.62 582.782 166.796C581.809 165.842 580.318 165.278 578.416 165.278H571.672V180.455ZM574.331 172.801V167.707H578.199C580.166 167.707 581.333 168.595 581.333 170.221V170.265C581.333 171.804 580.123 172.801 578.221 172.801H574.331Z" fill="#262323"/>
<path d="M585.994 180.455H588.718L590.274 176.791H597.428L598.963 180.455H601.772L595.115 165.17H592.651L585.994 180.455ZM591.247 174.427L593.84 168.357L596.455 174.427H591.247Z" fill="#262323"/>
<path d="M604.367 180.455H611.369C614.741 180.455 616.967 179.002 616.967 176.292V176.249C616.967 174.189 615.735 173.17 613.963 172.563C615.087 171.978 616.124 171.002 616.124 169.181V169.137C616.124 168.118 615.779 167.295 615.109 166.623C614.244 165.755 612.882 165.278 611.153 165.278H604.367V180.455ZM606.982 171.674V167.641H610.808C612.515 167.641 613.466 168.379 613.466 169.571V169.614C613.466 171.002 612.32 171.674 610.613 171.674H606.982ZM606.982 178.091V173.929H611.197C613.293 173.929 614.309 174.688 614.309 175.967V176.01C614.309 177.376 613.207 178.091 611.391 178.091H606.982Z" fill="#262323"/>
<path d="M619.965 180.455H630.577V178.026H622.623V165.278H619.965V180.455Z" fill="#262323"/>
<path d="M633.346 180.455H644.672V178.07H636.005V173.994H643.591V171.609H636.005V167.663H644.564V165.278H633.346V180.455Z" fill="#262323"/>
<path d="M653.121 180.671C656.298 180.671 658.524 178.98 658.524 176.14V176.097C658.524 173.582 656.86 172.433 653.661 171.652C650.765 170.959 650.073 170.438 650.073 169.268V169.224C650.073 168.227 650.981 167.425 652.537 167.425C653.921 167.425 655.282 167.967 656.644 168.986L658.07 166.969C656.536 165.734 654.785 165.062 652.581 165.062C649.576 165.062 647.415 166.861 647.415 169.463V169.506C647.415 172.303 649.231 173.257 652.451 174.037C655.261 174.688 655.866 175.273 655.866 176.357V176.4C655.866 177.549 654.828 178.308 653.186 178.308C651.305 178.308 649.857 177.593 648.409 176.335L646.81 178.243C648.625 179.869 650.808 180.671 653.121 180.671Z" fill="#262323"/>
<defs>
<linearGradient id="paint0_linear" x1="-2.87952e-07" y1="162.203" x2="111.453" y2="54.205" gradientUnits="userSpaceOnUse">
<stop stop-color="#92FE9D"/>
<stop offset="1" stop-color="#00C9FF"/>
</linearGradient>
<linearGradient id="paint1_linear" x1="22.2026" y1="227.629" x2="103.404" y2="219.625" gradientUnits="userSpaceOnUse">
<stop stop-color="#92FE9D"/>
<stop offset="1" stop-color="#00C9FF"/>
</linearGradient>
</defs>
</svg>
